<?xml version="1.0" encoding="UTF-8" standalone="no"?>
<!DOCTYPE svg PUBLIC "-//W3C//DTD SVG 1.1//EN"
 "http://www.w3.org/Graphics/SVG/1.1/DTD/svg11.dtd">
<!-- Generated by graphviz version 3.0.0 (20220226.1711)
 -->
<!-- Title: dependencies Pages: 1 -->
<svg width="570pt" height="174pt"
 viewBox="0.00 0.00 570.00 173.80" xmlns="http://www.w3.org/2000/svg" xmlns:xlink="http://www.w3.org/1999/xlink">
<g id="graph0" class="graph" transform="scale(1 1) rotate(0) translate(4 169.8)">
<title>dependencies</title>
<polygon fill="white" stroke="transparent" points="-4,4 -4,-169.8 566,-169.8 566,4 -4,4"/>
<text text-anchor="middle" x="281" y="-8.2" font-family="sans-serif" font-size="14.00">dependencies</text>
<g id="clust1" class="cluster">
<title>cluster_AccountModule</title>
<polygon fill="none" stroke="black" stroke-dasharray="1,5" points="8,-32.8 8,-157.8 554,-157.8 554,-32.8 8,-32.8"/>
</g>
<g id="clust3" class="cluster">
<title>cluster_AccountModule_imports</title>
<polygon fill="none" stroke="black" points="418,-40.8 418,-92.8 546,-92.8 546,-40.8 418,-40.8"/>
</g>
<g id="clust6" class="cluster">
<title>cluster_AccountModule_providers</title>
<polygon fill="none" stroke="black" points="16,-40.8 16,-92.8 410,-92.8 410,-40.8 16,-40.8"/>
</g>
<!-- CommonModule -->
<g id="node1" class="node">
<title>CommonModule</title>
<polygon fill="#8dd3c7" stroke="black" points="537.67,-84.8 534.67,-88.8 513.67,-88.8 510.67,-84.8 426.33,-84.8 426.33,-48.8 537.67,-48.8 537.67,-84.8"/>
<text text-anchor="middle" x="482" y="-62.6" font-family="Times,serif" font-size="14.00">CommonModule</text>
</g>
<!-- AccountModule -->
<g id="node2" class="node">
<title>AccountModule</title>
<polygon fill="#8dd3c7" stroke="black" points="369.48,-149.8 366.48,-153.8 345.48,-153.8 342.48,-149.8 262.52,-149.8 262.52,-113.8 369.48,-113.8 369.48,-149.8"/>
<text text-anchor="middle" x="316" y="-127.6" font-family="Times,serif" font-size="14.00">AccountModule</text>
</g>
<!-- CommonModule&#45;&gt;AccountModule -->
<g id="edge1" class="edge">
<title>CommonModule&#45;&gt;AccountModule</title>
<path fill="none" stroke="black" d="M482,-84.91C482,-104.14 482,-131.8 482,-131.8 482,-131.8 379.9,-131.8 379.9,-131.8"/>
<polygon fill="black" stroke="black" points="379.9,-128.3 369.9,-131.8 379.9,-135.3 379.9,-128.3"/>
</g>
<!-- AccountRepository -->
<g id="node3" class="node">
<title>AccountRepository</title>
<ellipse fill="#fdb462" stroke="black" cx="316" cy="-66.8" rx="86.27" ry="18"/>
<text text-anchor="middle" x="316" y="-62.6" font-family="Times,serif" font-size="14.00">AccountRepository</text>
</g>
<!-- AccountRepository&#45;&gt;AccountModule -->
<g id="edge2" class="edge">
<title>AccountRepository&#45;&gt;AccountModule</title>
<path fill="none" stroke="black" d="M316,-84.91C316,-84.91 316,-103.79 316,-103.79"/>
<polygon fill="black" stroke="black" points="312.5,-103.79 316,-113.79 319.5,-103.79 312.5,-103.79"/>
</g>
<!-- HttpResponseService -->
<g id="node4" class="node">
<title>HttpResponseService</title>
<ellipse fill="#fdb462" stroke="black" cx="118" cy="-66.8" rx="94.35" ry="18"/>
<text text-anchor="middle" x="118" y="-62.6" font-family="Times,serif" font-size="14.00">HttpResponseService</text>
</g>
<!-- HttpResponseService&#45;&gt;AccountModule -->
<g id="edge3" class="edge">
<title>HttpResponseService&#45;&gt;AccountModule</title>
<path fill="none" stroke="black" d="M118,-84.91C118,-104.14 118,-131.8 118,-131.8 118,-131.8 252.42,-131.8 252.42,-131.8"/>
<polygon fill="black" stroke="black" points="252.42,-135.3 262.42,-131.8 252.42,-128.3 252.42,-135.3"/>
</g>
</g>
</svg>
