<?xml version="1.0" encoding="UTF-8" standalone="no"?>
<!DOCTYPE svg PUBLIC "-//W3C//DTD SVG 1.1//EN"
 "http://www.w3.org/Graphics/SVG/1.1/DTD/svg11.dtd">
<!-- Generated by graphviz version 3.0.0 (20220226.1711)
 -->
<!-- Title: dependencies Pages: 1 -->
<svg width="1262pt" height="261pt"
 viewBox="0.00 0.00 1262.00 260.80" xmlns="http://www.w3.org/2000/svg" xmlns:xlink="http://www.w3.org/1999/xlink">
<g id="graph0" class="graph" transform="scale(1 1) rotate(0) translate(4 256.8)">
<title>dependencies</title>
<polygon fill="white" stroke="transparent" points="-4,4 -4,-256.8 1258,-256.8 1258,4 -4,4"/>
<text text-anchor="middle" x="627" y="-8.2" font-family="sans-serif" font-size="14.00">dependencies</text>
<g id="clust1" class="cluster">
<title>cluster_AccountModule</title>
<polygon fill="none" stroke="black" stroke-dasharray="1,5" points="8,-32.8 8,-160.8 554,-160.8 554,-32.8 8,-32.8"/>
</g>
<g id="clust3" class="cluster">
<title>cluster_AccountModule_imports</title>
<polygon fill="none" stroke="black" points="418,-40.8 418,-92.8 546,-92.8 546,-40.8 418,-40.8"/>
</g>
<g id="clust6" class="cluster">
<title>cluster_AccountModule_providers</title>
<polygon fill="none" stroke="black" points="16,-40.8 16,-92.8 410,-92.8 410,-40.8 16,-40.8"/>
</g>
<g id="clust7" class="cluster">
<title>cluster_AppModule</title>
<polygon fill="none" stroke="black" stroke-dasharray="1,5" points="562,-108.8 562,-160.8 662,-160.8 662,-108.8 562,-108.8"/>
</g>
<g id="clust13" class="cluster">
<title>cluster_CommonModule</title>
<polygon fill="none" stroke="black" stroke-dasharray="1,5" points="670,-100.8 670,-168.8 1246,-168.8 1246,-100.8 670,-100.8"/>
</g>
<g id="clust15" class="cluster">
<title>cluster_CommonModule_imports</title>
<polygon fill="none" stroke="black" points="678,-108.8 678,-160.8 950,-160.8 950,-108.8 678,-108.8"/>
</g>
<g id="clust16" class="cluster">
<title>cluster_CommonModule_exports</title>
<polygon fill="none" stroke="black" points="958,-108.8 958,-160.8 1238,-160.8 1238,-108.8 958,-108.8"/>
</g>
<g id="clust25" class="cluster">
<title>cluster_HttpResponseModule</title>
<polygon fill="none" stroke="black" stroke-dasharray="1,5" points="628,-176.8 628,-244.8 800,-244.8 800,-176.8 628,-176.8"/>
</g>
<g id="clust28" class="cluster">
<title>cluster_HttpResponseModule_exports</title>
<polygon fill="none" stroke="black" points="636,-184.8 636,-236.8 792,-236.8 792,-184.8 636,-184.8"/>
</g>
<g id="clust31" class="cluster">
<title>cluster_LoggerModule</title>
<polygon fill="none" stroke="black" stroke-dasharray="1,5" points="808,-176.8 808,-244.8 1102,-244.8 1102,-176.8 808,-176.8"/>
</g>
<g id="clust34" class="cluster">
<title>cluster_LoggerModule_exports</title>
<polygon fill="none" stroke="black" points="976,-184.8 976,-236.8 1094,-236.8 1094,-184.8 976,-184.8"/>
</g>
<g id="clust36" class="cluster">
<title>cluster_LoggerModule_providers</title>
<polygon fill="none" stroke="black" points="816,-184.8 816,-236.8 968,-236.8 968,-184.8 816,-184.8"/>
</g>
<!-- CommonModule -->
<g id="node1" class="node">
<title>CommonModule</title>
<polygon fill="#8dd3c7" stroke="black" points="537.67,-84.8 534.67,-88.8 513.67,-88.8 510.67,-84.8 426.33,-84.8 426.33,-48.8 537.67,-48.8 537.67,-84.8"/>
<text text-anchor="middle" x="482" y="-62.6" font-family="Times,serif" font-size="14.00">CommonModule</text>
</g>
<!-- AccountModule -->
<g id="node2" class="node">
<title>AccountModule</title>
<polygon fill="#8dd3c7" stroke="black" points="361.48,-152.8 358.48,-156.8 337.48,-156.8 334.48,-152.8 254.52,-152.8 254.52,-116.8 361.48,-116.8 361.48,-152.8"/>
<text text-anchor="middle" x="308" y="-130.6" font-family="Times,serif" font-size="14.00">AccountModule</text>
</g>
<!-- CommonModule&#45;&gt;AccountModule -->
<g id="edge1" class="edge">
<title>CommonModule&#45;&gt;AccountModule</title>
<path fill="none" stroke="black" d="M482,-85.02C482,-105.17 482,-134.8 482,-134.8 482,-134.8 371.63,-134.8 371.63,-134.8"/>
<polygon fill="black" stroke="black" points="371.63,-131.3 361.63,-134.8 371.63,-138.3 371.63,-131.3"/>
</g>
<!-- AppModule -->
<g id="node5" class="node">
<title>AppModule</title>
<polygon fill="#8dd3c7" stroke="black" points="653.66,-152.8 650.66,-156.8 629.66,-156.8 626.66,-152.8 570.34,-152.8 570.34,-116.8 653.66,-116.8 653.66,-152.8"/>
<text text-anchor="middle" x="612" y="-130.6" font-family="Times,serif" font-size="14.00">AppModule</text>
</g>
<!-- CommonModule&#45;&gt;AppModule -->
<g id="edge4" class="edge">
<title>CommonModule&#45;&gt;AppModule</title>
<path fill="none" stroke="black" d="M537.89,-78.8C573.12,-78.8 612,-78.8 612,-78.8 612,-78.8 612,-106.77 612,-106.77"/>
<polygon fill="black" stroke="black" points="608.5,-106.77 612,-116.77 615.5,-106.77 608.5,-106.77"/>
</g>
<!-- HttpResponseModule  -->
<g id="node8" class="node">
<title>HttpResponseModule </title>
<polygon fill="#fb8072" stroke="black" points="1229.6,-152.8 1088.4,-152.8 1088.4,-116.8 1229.6,-116.8 1229.6,-152.8"/>
<text text-anchor="middle" x="1159" y="-130.6" font-family="Times,serif" font-size="14.00">HttpResponseModule </text>
</g>
<!-- CommonModule&#45;&gt;HttpResponseModule  -->
<g id="edge7" class="edge">
<title>CommonModule&#45;&gt;HttpResponseModule </title>
<path fill="none" stroke="black" stroke-dasharray="5,2" d="M537.69,-54.8C699.63,-54.8 1159,-54.8 1159,-54.8 1159,-54.8 1159,-106.65 1159,-106.65"/>
<polygon fill="black" stroke="black" points="1155.5,-106.65 1159,-116.65 1162.5,-106.65 1155.5,-106.65"/>
</g>
<!-- LoggerModule  -->
<g id="node9" class="node">
<title>LoggerModule </title>
<polygon fill="#fb8072" stroke="black" points="1069.98,-152.8 966.02,-152.8 966.02,-116.8 1069.98,-116.8 1069.98,-152.8"/>
<text text-anchor="middle" x="1018" y="-130.6" font-family="Times,serif" font-size="14.00">LoggerModule </text>
</g>
<!-- CommonModule&#45;&gt;LoggerModule  -->
<g id="edge8" class="edge">
<title>CommonModule&#45;&gt;LoggerModule </title>
<path fill="none" stroke="black" stroke-dasharray="5,2" d="M537.84,-60.8C675.13,-60.8 1018,-60.8 1018,-60.8 1018,-60.8 1018,-106.51 1018,-106.51"/>
<polygon fill="black" stroke="black" points="1014.5,-106.51 1018,-116.51 1021.5,-106.51 1014.5,-106.51"/>
</g>
<!-- AccountRepository -->
<g id="node3" class="node">
<title>AccountRepository</title>
<ellipse fill="#fdb462" stroke="black" cx="110" cy="-66.8" rx="86.27" ry="18"/>
<text text-anchor="middle" x="110" y="-62.6" font-family="Times,serif" font-size="14.00">AccountRepository</text>
</g>
<!-- AccountRepository&#45;&gt;AccountModule -->
<g id="edge2" class="edge">
<title>AccountRepository&#45;&gt;AccountModule</title>
<path fill="none" stroke="black" d="M110,-85.02C110,-105.17 110,-134.8 110,-134.8 110,-134.8 244.42,-134.8 244.42,-134.8"/>
<polygon fill="black" stroke="black" points="244.42,-138.3 254.42,-134.8 244.42,-131.3 244.42,-138.3"/>
</g>
<!-- HttpResponseService -->
<g id="node4" class="node">
<title>HttpResponseService</title>
<ellipse fill="#fdb462" stroke="black" cx="308" cy="-66.8" rx="94.35" ry="18"/>
<text text-anchor="middle" x="308" y="-62.6" font-family="Times,serif" font-size="14.00">HttpResponseService</text>
</g>
<!-- HttpResponseService&#45;&gt;AccountModule -->
<g id="edge3" class="edge">
<title>HttpResponseService&#45;&gt;AccountModule</title>
<path fill="none" stroke="black" d="M308,-85.02C308,-85.02 308,-106.53 308,-106.53"/>
<polygon fill="black" stroke="black" points="304.5,-106.53 308,-116.53 311.5,-106.53 304.5,-106.53"/>
</g>
<!-- HttpResponseModule -->
<g id="node6" class="node">
<title>HttpResponseModule</title>
<polygon fill="#8dd3c7" stroke="black" points="824.1,-152.8 821.1,-156.8 800.1,-156.8 797.1,-152.8 685.9,-152.8 685.9,-116.8 824.1,-116.8 824.1,-152.8"/>
<text text-anchor="middle" x="755" y="-130.6" font-family="Times,serif" font-size="14.00">HttpResponseModule</text>
</g>
<!-- HttpResponseService&#45;&gt;HttpResponseModule -->
<g id="edge10" class="edge">
<title>HttpResponseService&#45;&gt;HttpResponseModule</title>
<path fill="none" stroke="black" d="M381.83,-78.31C381.83,-88.17 381.83,-100.8 381.83,-100.8 381.83,-100.8 731.98,-100.8 731.98,-100.8 731.98,-100.8 731.98,-106.61 731.98,-106.61"/>
<polygon fill="black" stroke="black" points="728.48,-106.61 731.98,-116.61 735.48,-106.61 728.48,-106.61"/>
</g>
<!-- HttpResponseModule&#45;&gt;CommonModule -->
<g id="edge5" class="edge">
<title>HttpResponseModule&#45;&gt;CommonModule</title>
<path fill="none" stroke="black" d="M778.02,-116.53C778.02,-98.24 778.02,-72.8 778.02,-72.8 778.02,-72.8 547.68,-72.8 547.68,-72.8"/>
<polygon fill="black" stroke="black" points="547.68,-69.3 537.68,-72.8 547.68,-76.3 547.68,-69.3"/>
</g>
<!-- HttpResponseService  -->
<g id="node10" class="node">
<title>HttpResponseService </title>
<polygon fill="#fb8072" stroke="black" points="784.03,-228.8 643.97,-228.8 643.97,-192.8 784.03,-192.8 784.03,-228.8"/>
<text text-anchor="middle" x="714" y="-206.6" font-family="Times,serif" font-size="14.00">HttpResponseService </text>
</g>
<!-- HttpResponseModule&#45;&gt;HttpResponseService  -->
<g id="edge9" class="edge">
<title>HttpResponseModule&#45;&gt;HttpResponseService </title>
<path fill="none" stroke="black" stroke-dasharray="5,2" d="M734.98,-152.81C734.98,-152.81 734.98,-182.65 734.98,-182.65"/>
<polygon fill="black" stroke="black" points="731.48,-182.65 734.98,-192.65 738.48,-182.65 731.48,-182.65"/>
</g>
<!-- LoggerModule -->
<g id="node7" class="node">
<title>LoggerModule</title>
<polygon fill="#8dd3c7" stroke="black" points="941.98,-152.8 938.98,-156.8 917.98,-156.8 914.98,-152.8 842.02,-152.8 842.02,-116.8 941.98,-116.8 941.98,-152.8"/>
<text text-anchor="middle" x="892" y="-130.6" font-family="Times,serif" font-size="14.00">LoggerModule</text>
</g>
<!-- LoggerModule&#45;&gt;CommonModule -->
<g id="edge6" class="edge">
<title>LoggerModule&#45;&gt;CommonModule</title>
<path fill="none" stroke="black" d="M892,-116.58C892,-96.43 892,-66.8 892,-66.8 892,-66.8 547.72,-66.8 547.72,-66.8"/>
<polygon fill="black" stroke="black" points="547.72,-63.3 537.72,-66.8 547.72,-70.3 547.72,-63.3"/>
</g>
<!-- LoggerService  -->
<g id="node11" class="node">
<title>LoggerService </title>
<polygon fill="#fb8072" stroke="black" points="1085.91,-228.8 984.09,-228.8 984.09,-192.8 1085.91,-192.8 1085.91,-228.8"/>
<text text-anchor="middle" x="1035" y="-206.6" font-family="Times,serif" font-size="14.00">LoggerService </text>
</g>
<!-- LoggerModule&#45;&gt;LoggerService  -->
<g id="edge11" class="edge">
<title>LoggerModule&#45;&gt;LoggerService </title>
<path fill="none" stroke="black" stroke-dasharray="5,2" d="M908.66,-152.91C908.66,-162.7 908.66,-172.8 908.66,-172.8 908.66,-172.8 1026.89,-172.8 1026.89,-172.8 1026.89,-172.8 1026.89,-182.69 1026.89,-182.69"/>
<polygon fill="black" stroke="black" points="1023.39,-182.69 1026.89,-192.69 1030.39,-182.69 1023.39,-182.69"/>
</g>
<!-- LoggerService -->
<g id="node12" class="node">
<title>LoggerService</title>
<ellipse fill="#fdb462" stroke="black" cx="892" cy="-210.8" rx="67.76" ry="18"/>
<text text-anchor="middle" x="892" y="-206.6" font-family="Times,serif" font-size="14.00">LoggerService</text>
</g>
<!-- LoggerService&#45;&gt;LoggerModule -->
<g id="edge12" class="edge">
<title>LoggerService&#45;&gt;LoggerModule</title>
<path fill="none" stroke="black" d="M875.34,-193.17C875.34,-193.17 875.34,-162.86 875.34,-162.86"/>
<polygon fill="black" stroke="black" points="878.84,-162.86 875.34,-152.86 871.84,-162.86 878.84,-162.86"/>
</g>
</g>
</svg>
